<svg xmlns="http://www.w3.org/2000/svg" aria-hidden="true" overflow="hidden" style="position:absolute;width:0;height:0"><defs><symbol id="icon-arrow-right" viewBox="0 0 41 32"><path fill="none" stroke="var(--color1, #eac645)" stroke-linejoin="round" stroke-width="5.33" d="M2.665 16h35.53M24.871 2.676 38.195 16 24.871 29.324"/></symbol><symbol id="icon-burger" viewBox="0 0 32 32"><path stroke-linecap="round" stroke-linejoin="round" stroke-width="2.286" d="M22.666 13.333H4M28 8H4M28 18.667H4M22.666 24H4"/></symbol><symbol id="icon-shoper" viewBox="0 0 26 32"><path fill="var(--color2, #fff)" d="M24 8h-4.8V6.4a6.4 6.4 0 0 0-12.8 0V8H1.6A1.6 1.6 0 0 0 0 9.6v17.6A4.8 4.8 0 0 0 4.8 32h15.999a4.798 4.798 0 0 0 4.8-4.8V9.6a1.6 1.6 0 0 0-1.6-1.6zM9.6 6.4a3.201 3.201 0 0 1 6.4 0V8H9.601V6.4zm12.801 20.8a1.6 1.6 0 0 1-1.602 1.6H4.8a1.6 1.6 0 0 1-1.6-1.6v-16h3.199v1.6a1.6 1.6 0 0 0 3.202 0v-1.6H16v1.6a1.6 1.6 0 0 0 3.202 0v-1.6h3.201v16z"/></symbol><symbol id="icon-close" viewBox="0 0 32 32"><path stroke-linejoin="round" stroke-width="5.643" d="M29.167 2.833 2.833 29.167m0-26.334 26.334 26.334"/></symbol></defs></svg>