<svg aria-hidden="true" style="position: absolute; width: 0; height: 0; overflow: hidden;" version="1.1" xmlns="http://www.w3.org/2000/svg" xmlns:xlink="http://www.w3.org/1999/xlink">
<defs>

    <symbol id="icon-logo" viewBox="0 0 32 32">
    <path fill="#f6f6f6" style="fill: var(--color1, #f6f6f6)" d="M0 0l16.343 16.171 15.657 15.829v-32h-32z"></path>
    <path fill="#f6f6f6" style="fill: var(--color1, #f6f6f6)" d="M4.457 4.229l11.943 11.829 11.257 11.486h-23.2v-23.314z"></path>
    <path fill="#4f2ee8" style="fill: var(--color2, #4f2ee8)" d="M27.733 27.618l-11.943-11.829-11.257-11.486h23.2v23.314z"></path>
    <path fill="#4f2ee8" style="fill: var(--color2, #4f2ee8)" d="M9.257 9.029l13.6 13.6h-13.6v-13.6z"></path>
    <path fill="#f6f6f6" style="fill: var(--color1, #f6f6f6)" d="M9.257 9.029l13.6 13.6v-13.6h-13.6z"></path>
    </symbol>

    <symbol id="icon-burger" viewBox="0 0 32 32">
    <path stroke-linejoin="round" stroke-linecap="round" stroke-miterlimit="4" stroke-width="2.2857" d="M22.667 13.333h-18.667"></path>
    <path stroke-linejoin="round" stroke-linecap="round" stroke-miterlimit="4" stroke-width="2.2857" d="M28 8h-24"></path>
    <path stroke-linejoin="round" stroke-linecap="round" stroke-miterlimit="4" stroke-width="2.2857" d="M28 18.667h-24"></path>
    <path stroke-linejoin="round" stroke-linecap="round" stroke-miterlimit="4" stroke-width="2.2857" d="M22.667 24h-18.667"></path>
    </symbol>

    <symbol id="icon-slider" viewBox="0 0 32 32">
    <path fill="#fff" style="fill: var(--color1, #fff)" d="M16 32c-8.837 0-16-7.163-16-16s7.163-16 16-16c8.837 0 16 7.163 16 16s-7.163 16-16 16z"></path>
    <path fill="#4f2ee8" style="fill: var(--color2, #4f2ee8)" d="M15.452 17.081c0.072 0.072 0.157 0.13 0.251 0.169s0.195 0.059 0.297 0.059 0.203-0.020 0.297-0.059c0.094-0.039 0.179-0.097 0.251-0.169l3.535-3.543c0.072-0.072 0.157-0.13 0.251-0.169s0.195-0.059 0.297-0.059c0.102 0 0.203 0.020 0.297 0.059s0.179 0.097 0.251 0.169c0.144 0.145 0.224 0.34 0.224 0.544s-0.081 0.4-0.224 0.544l-3.543 3.543c-0.434 0.434-1.023 0.677-1.636 0.677s-1.202-0.244-1.637-0.677l-3.543-3.543c-0.143-0.144-0.223-0.338-0.224-0.54-0.001-0.102 0.019-0.202 0.057-0.296s0.095-0.18 0.167-0.252c0.072-0.072 0.157-0.13 0.251-0.169s0.195-0.059 0.297-0.059c0.102 0 0.203 0.020 0.297 0.059s0.179 0.097 0.251 0.169l3.535 3.543z"></path>
    </symbol>

    <symbol id="icon-caret-down" viewBox="0 0 28 32">
    <path fill="#fff" style="fill: var(--color1, #fff)" d="M5.898 12h16.513l-7.423 8.391c-0.221 0.25-0.521 0.39-0.834 0.39s-0.613-0.14-0.834-0.39l-7.422-8.391z"></path>
    </symbol>

    <symbol id="icon-shopping-cart" viewBox="0 0 32 32">
    <path d="M26.37 8.593h-4.444v-1.481c0-1.572-0.624-3.079-1.736-4.19s-2.619-1.736-4.19-1.736c-1.572 0-3.079 0.624-4.19 1.736s-1.736 2.619-1.736 4.19v1.481h-4.444c-0.393 0-0.77 0.156-1.048 0.434s-0.434 0.655-0.434 1.048v16.296c0 1.179 0.468 2.309 1.302 3.143s1.964 1.302 3.143 1.302h14.815c1.179 0 2.309-0.468 3.143-1.302s1.302-1.964 1.302-3.143v-16.296c0-0.393-0.156-0.77-0.434-1.048s-0.655-0.434-1.048-0.434zM13.037 7.111c0-0.786 0.312-1.539 0.868-2.095s1.309-0.868 2.095-0.868c0.786 0 1.539 0.312 2.095 0.868s0.868 1.309 0.868 2.095v1.481h-5.926v-1.481zM24.889 26.37c0 0.393-0.156 0.77-0.434 1.047s-0.655 0.434-1.047 0.434h-14.815c-0.393 0-0.77-0.156-1.048-0.434s-0.434-0.655-0.434-1.047v-14.815h2.963v1.481c0 0.393 0.156 0.77 0.434 1.048s0.655 0.434 1.048 0.434c0.393 0 0.77-0.156 1.048-0.434s0.434-0.655 0.434-1.048v-1.481h5.926v1.481c0 0.393 0.156 0.77 0.434 1.048s0.655 0.434 1.048 0.434c0.393 0 0.77-0.156 1.047-0.434s0.434-0.655 0.434-1.048v-1.481h2.963v14.815z"></path>
    </symbol>

    <symbol id="icon-up" viewBox="0 0 32 32">
    <path fill="#4f2ee8" style="fill: var(--color2, #4f2ee8)" opacity="0.3" d="M32 16c0 8.837-7.163 16-16 16s-16-7.163-16-16c0-8.837 7.163-16 16-16s16 7.163 16 16z"></path>
    <path fill="#4f2ee8" style="fill: var(--color2, #4f2ee8)" d="M29.5 16c0 7.456-6.044 13.5-13.5 13.5s-13.5-6.044-13.5-13.5c0-7.456 6.044-13.5 13.5-13.5s13.5 6.044 13.5 13.5z"></path>
    <path fill="#fff" style="fill: var(--color1, #fff)" d="M11.687 17.35l4.2-4.213c0.050-0.050 0.104-0.085 0.162-0.106s0.121-0.031 0.188-0.031c0.067 0 0.129 0.011 0.188 0.031s0.113 0.056 0.163 0.106l4.212 4.213c0.117 0.117 0.175 0.262 0.175 0.438s-0.063 0.325-0.188 0.45c-0.125 0.125-0.271 0.188-0.438 0.188s-0.313-0.063-0.438-0.188l-3.675-3.675-3.675 3.675c-0.117 0.117-0.26 0.175-0.431 0.175s-0.319-0.063-0.444-0.188-0.188-0.271-0.188-0.438c0-0.167 0.063-0.313 0.188-0.438z"></path>
    </symbol>

    <symbol id="icon-tryzub" viewBox="0 0 32 32">
    <path fill="#fff" style="fill: var(--color1, #fff)" d="M15.005 30.888c-1.738-1.262-2.991-3.156-3.414-5.351h-5.591v-23.117c2.991 1.443 5.153 4.599 5.388 7.876l0.846 6.493-0.407-0.045c-0.893 0-1.676 0.812-1.676 1.608 0 0.752 0.595 1.383 1.378 1.548l1.018 0.226c1.676-3.051 2.631-6.042 2.631-8.973 0-2.645-0.36-5.291-0.423-7.996 0-1.202 0.486-2.3 1.253-3.156 0.783 0.857 1.253 1.954 1.253 3.156 0 2.705-0.423 5.351-0.423 7.996 0 2.931 0.955 5.922 2.631 8.973l1.018-0.226c0.783-0.165 1.378-0.812 1.378-1.548 0-0.812-0.783-1.608-1.676-1.608l-0.423 0.060 0.846-6.493c0.423-3.277 2.396-6.448 5.388-7.876v23.117h-5.576c-0.423 2.179-1.613 4.148-3.414 5.351-0.423 0.286-0.783 0.631-1.018 1.097-0.219-0.466-0.579-0.812-0.987-1.112zM8.647 17.556c0.235-0.857 0.893-1.608 1.738-2.074l-0.658-5.351c-0.235-1.668-0.955-3.156-2.036-4.374v11.784h0.955v0.015zM11.466 23.929c0-0.812 0.125-1.548 0.298-2.3l-0.783-0.18c-1.143-0.346-2.036-1.203-2.334-2.3h-0.955v4.78h3.774zM15.178 23.929c0-0.977-0.783-1.834-1.801-1.954-0.172 0.631-0.298 1.263-0.298 1.954h2.099zM15.178 25.552h-1.864c0.298 1.263 0.955 2.42 1.864 3.397v-3.397zM17.809 20.547c-0.72-1.262-1.378-2.585-1.801-3.968-0.423 1.383-1.081 2.706-1.801 3.968 0.72 0.165 1.316 0.631 1.801 1.157 0.485-0.526 1.081-0.992 1.801-1.157zM18.952 23.929c0-0.691-0.125-1.323-0.297-1.954-1.018 0.12-1.801 0.977-1.801 1.954h2.099zM18.717 25.552h-1.864v3.397c0.908-0.992 1.566-2.134 1.864-3.397zM24.34 23.929v-4.78h-0.955c-0.298 1.097-1.206 1.954-2.334 2.3l-0.783 0.18c0.172 0.752 0.298 1.488 0.298 2.3h3.774zM24.34 17.556v-11.799c-1.081 1.202-1.864 2.706-2.036 4.374l-0.658 5.351c0.846 0.466 1.504 1.203 1.738 2.074h0.955z"></path>
    </symbol>

    <symbol id="icon-arrow-arrow-right" viewBox="0 0 32 32">
    <path fill="none" stroke="#eac645" style="stroke: var(--color3, #eac645)" stroke-linejoin="round" stroke-linecap="round" stroke-miterlimit="4" stroke-width="3.2" d="M5.333 16h21.333M26.667 16l-8-8M26.667 16l-8 8"></path>
    </symbol>

    <symbol id="icon-user" viewBox="0 0 32 32">
    <path fill="#f6f6f6" style="fill: var(--color4, #f6f6f6)" d="M32 16c0 8.837-7.163 16-16 16s-16-7.163-16-16c0-8.837 7.163-16 16-16s16 7.163 16 16z"></path>
    <path fill="#4f2ee8" style="fill: var(--color2, #4f2ee8)" d="M10.523 22.847c0-1.453 0.577-2.846 1.604-3.873s2.421-1.604 3.873-1.604 2.846 0.577 3.873 1.604c1.027 1.027 1.604 2.421 1.604 3.873h-10.955zM16 16.685c-2.27 0-4.108-1.838-4.108-4.108s1.838-4.108 4.108-4.108c2.27 0 4.108 1.838 4.108 4.108s-1.838 4.108-4.108 4.108z"></path>
    </symbol>

    <symbol id="icon-basket" viewBox="0 0 32 32">
    <path fill="#4f2ee8" style="fill: var(--color2, #4f2ee8)" d="M32 16c0 8.837-7.163 16-16 16s-16-7.163-16-16c0-8.837 7.163-16 16-16s16 7.163 16 16z"></path>
    <path fill="none" stroke="#fff" style="stroke: var(--color1, #fff)" stroke-linejoin="round" stroke-linecap="round" stroke-miterlimit="4" stroke-width="1.6842" d="M13.684 9.053h4.632M9.053 11.368h13.895M21.404 11.368l-0.541 8.12c-0.081 1.218-0.122 1.827-0.385 2.289-0.232 0.407-0.581 0.733-1.002 0.938-0.478 0.232-1.089 0.232-2.31 0.232h-2.33c-1.221 0-1.832 0-2.31-0.232-0.421-0.204-0.771-0.531-1.002-0.938-0.263-0.462-0.304-1.071-0.385-2.289l-0.541-8.12M14.456 14.842v3.86M17.544 14.842v3.86"></path>
    </symbol>

    <symbol id="icon-x-close" viewBox="0 0 32 32">
    <path stroke-linejoin="round" stroke-linecap="round" stroke-miterlimit="4" stroke-width="3.4286" d="M24 8l-16 16M8 8l16 16"></path>
    </symbol>

    <symbol id="icon-maill" viewBox="0 0 32 32">
    <path stroke-linejoin="round" stroke-linecap="round" stroke-miterlimit="4" stroke-width="2.2857" d="M28.666 24l-8.857-8M12.19 16l-8.857 8M2.667 9.333l10.887 7.621c0.882 0.617 1.322 0.926 1.802 1.045 0.423 0.106 0.866 0.106 1.29 0 0.479-0.12 0.92-0.428 1.802-1.045l10.887-7.621M9.067 26.667h13.867c2.24 0 3.36 0 4.216-0.436 0.753-0.384 1.365-0.995 1.748-1.748 0.436-0.856 0.436-1.976 0.436-4.216v-8.533c0-2.24 0-3.36-0.436-4.216-0.383-0.753-0.995-1.365-1.748-1.748-0.856-0.436-1.976-0.436-4.216-0.436h-13.867c-2.24 0-3.36 0-4.216 0.436-0.753 0.383-1.365 0.995-1.748 1.748-0.436 0.856-0.436 1.976-0.436 4.216v8.533c0 2.24 0 3.36 0.436 4.216 0.384 0.753 0.995 1.365 1.748 1.748 0.856 0.436 1.976 0.436 4.216 0.436z"></path>
    </symbol>
    
    <symbol id="icon-password" viewBox="0 0 32 32">
    <path stroke-linejoin="round" stroke-linecap="round" stroke-miterlimit="4" stroke-width="2.2857" d="M22.667 14.667v-4c0-3.682-2.985-6.667-6.667-6.667s-6.667 2.985-6.667 6.667v4M10.4 28h11.2c2.24 0 3.36 0 4.216-0.436 0.753-0.383 1.365-0.995 1.748-1.748 0.436-0.856 0.436-1.976 0.436-4.216v-0.533c0-2.24 0-3.36-0.436-4.216-0.383-0.753-0.995-1.365-1.748-1.748-0.856-0.436-1.976-0.436-4.216-0.436h-11.2c-2.24 0-3.36 0-4.216 0.436-0.753 0.384-1.365 0.995-1.748 1.748-0.436 0.856-0.436 1.976-0.436 4.216v0.533c0 2.24 0 3.36 0.436 4.216 0.383 0.753 0.995 1.365 1.748 1.748 0.856 0.436 1.976 0.436 4.216 0.436z"></path>
    </symbol>

</defs>
</svg>
